<mxfile host="app.diagrams.net" modified="2020-06-07T12:49:05.151Z" agent="5.0 (Windows)" etag="TeY4a0o7YOx5Rlw-SQHE" version="13.1.14" type="github">
  <diagram id="39HmSSPPJytQBJ3p-pZv" name="Page-1">
    <mxGraphModel dx="756" dy="496" grid="1" gridSize="10" guides="1" tooltips="1" connect="1" arrows="1" fold="1" page="1" pageScale="1" pageWidth="850" pageHeight="1100" math="0" shadow="0">
      <root>
        <mxCell id="0" />
        <mxCell id="1" parent="0" />
        <mxCell id="28w-H09hTlqUuu_r2elM-1" value="&lt;div&gt;React &lt;br&gt;&lt;/div&gt;&lt;div&gt;Counter&lt;/div&gt;" style="rounded=0;whiteSpace=wrap;html=1;dashed=1;" vertex="1" parent="1">
          <mxGeometry x="240" y="200" width="120" height="60" as="geometry" />
        </mxCell>
        <mxCell id="28w-H09hTlqUuu_r2elM-2" value="&lt;div&gt;Web &lt;br&gt;&lt;/div&gt;&lt;div&gt;Counter&lt;/div&gt;" style="rounded=0;whiteSpace=wrap;html=1;dashed=1;" vertex="1" parent="1">
          <mxGeometry x="400" y="200" width="120" height="60" as="geometry" />
        </mxCell>
        <mxCell id="28w-H09hTlqUuu_r2elM-8" value="&lt;div&gt;Single-SPA&lt;/div&gt;" style="rounded=0;whiteSpace=wrap;html=1;strokeColor=#000000;" vertex="1" parent="1">
          <mxGeometry x="240" y="280" width="280" height="60" as="geometry" />
        </mxCell>
        <mxCell id="28w-H09hTlqUuu_r2elM-9" value="Webpack &lt;br&gt;Module Federation" style="rounded=0;whiteSpace=wrap;html=1;strokeColor=#000000;" vertex="1" parent="1">
          <mxGeometry x="240" y="360" width="280" height="60" as="geometry" />
        </mxCell>
      </root>
    </mxGraphModel>
  </diagram>
</mxfile>
